<svg width="168" height="168" viewBox="0 0 168 168" fill="none" xmlns="http://www.w3.org/2000/svg">
<g filter="url(#filter0_d_105_8)">
<path d="M109.853 115.285C107.917 115.773 105.876 115.678 103.995 115.013C102.114 114.348 100.479 113.142 99.3032 111.553C98.599 110.621 98.0969 109.558 97.8279 108.427C97.559 107.297 97.529 106.125 97.7397 104.983C97.8098 104.608 97.9078 104.238 98.0328 103.877L98.267 103.197L98.9012 103.629C100.374 104.66 102.011 105.44 103.747 105.938L104.198 106.07L104.152 106.5C104.099 107.125 104.277 107.747 104.652 108.254C105.005 108.745 105.501 109.118 106.076 109.324C106.65 109.53 107.274 109.559 107.866 109.407C108.133 109.339 108.388 109.232 108.623 109.09L120.976 101.561C121.277 101.381 121.536 101.142 121.738 100.858C121.939 100.575 122.077 100.253 122.144 99.9132C122.21 99.5708 122.204 99.2187 122.127 98.8786C122.05 98.5385 121.902 98.2176 121.694 97.9357C121.339 97.4563 120.846 97.0925 120.279 96.8915C119.711 96.6905 119.096 96.6616 118.511 96.8083C118.243 96.8768 117.986 96.9843 117.75 97.1273L113.008 99.9983C112.228 100.473 111.38 100.828 110.493 101.053C108.555 101.543 106.512 101.448 104.629 100.783C102.746 100.117 101.111 98.9103 99.9337 97.3195C99.2342 96.3848 98.7373 95.3189 98.4738 94.1878C98.2102 93.0567 98.1857 91.8845 98.4016 90.7437C98.6192 89.6199 99.0745 88.5536 99.738 87.6138C100.401 86.674 101.258 85.8817 102.253 85.2881L114.621 77.759C115.401 77.2854 116.248 76.9304 117.136 76.7059C119.074 76.2153 121.117 76.3089 123.001 76.9744C124.884 77.6399 126.52 78.8466 127.697 80.4378C128.401 81.3695 128.903 82.4334 129.172 83.5636C129.441 84.6937 129.471 85.8661 129.26 87.0082C129.191 87.3833 129.093 87.7528 128.967 88.1138L128.733 88.7935L128.099 88.3639C126.627 87.3317 124.989 86.551 123.253 86.0548L122.802 85.9207L122.848 85.4911C122.901 84.866 122.723 84.243 122.346 83.7366C121.993 83.2565 121.5 82.8923 120.933 82.6912C120.366 82.4901 119.75 82.4616 119.166 82.6092C118.898 82.6773 118.643 82.7849 118.408 82.9282L106.014 90.432C105.714 90.6103 105.454 90.8491 105.254 91.1327C105.053 91.4163 104.916 91.7383 104.851 92.0777C104.783 92.4203 104.788 92.773 104.865 93.1137C104.943 93.4543 105.091 93.7755 105.301 94.057C105.656 94.5361 106.149 94.8995 106.716 95.1001C107.284 95.3008 107.899 95.3295 108.483 95.1825C108.751 95.114 109.008 95.0071 109.245 94.8653L113.968 91.9925C114.747 91.5181 115.595 91.1631 116.483 90.9395C118.421 90.4499 120.464 90.5439 122.347 91.2094C124.23 91.8748 125.867 93.0809 127.044 94.6714C127.747 95.6039 128.247 96.6681 128.514 97.7982C128.782 98.9283 128.81 100.1 128.599 101.242C128.382 102.367 127.928 103.434 127.264 104.375C126.601 105.316 125.743 106.109 124.747 106.703L112.381 114.232C111.602 114.706 110.754 115.061 109.866 115.285" fill="url(#paint0_linear_105_8)"/>
<path d="M89.1145 152.78C78.0905 152.78 68.3665 150.388 59.9425 145.604C51.6225 140.82 45.0705 134.164 40.2865 125.636C35.6065 117.108 33.2665 107.228 33.2665 95.996C33.2665 87.052 34.7745 78.732 37.7905 71.036C40.8065 63.34 44.9665 56.632 50.2705 50.912C55.6785 45.192 62.0225 40.72 69.3025 37.496C76.5825 34.272 84.4345 32.66 92.8585 32.66C101.698 32.66 109.966 34.428 117.662 37.964C125.462 41.396 131.65 46.076 136.226 52.004C128.634 60.844 121.562 67.032 115.01 70.568C107.002 54.864 97.3825 47.012 86.1505 47.012C78.5585 47.012 72.4225 50.184 67.7425 56.528C63.1665 62.872 60.8785 71.4 60.8785 82.112C60.8785 89.08 61.8145 95.944 63.6865 102.704C65.6625 109.36 68.2625 115.392 71.4865 120.8C74.8145 126.208 78.5065 130.524 82.5625 133.748C86.7225 136.868 90.9345 138.428 95.1985 138.428C98.3185 138.428 101.542 137.648 104.87 136.088C108.198 134.424 111.318 132.188 114.23 129.38C117.246 126.468 119.742 123.244 121.718 119.708L136.226 131.096C123.538 145.552 107.834 152.78 89.1145 152.78Z" fill="url(#paint1_linear_105_8)"/>
</g>
<defs>
<filter id="filter0_d_105_8" x="29.2665" y="32.66" width="117.734" height="128.12" filterUnits="userSpaceOnUse" color-interpolation-filters="sRGB">
<feFlood flood-opacity="0" result="BackgroundImageFix"/>
<feColorMatrix in="SourceAlpha" type="matrix" values="0 0 0 0 0 0 0 0 0 0 0 0 0 0 0 0 0 0 127 0" result="hardAlpha"/>
<feOffset dy="4"/>
<feGaussianBlur stdDeviation="2"/>
<feComposite in2="hardAlpha" operator="out"/>
<feColorMatrix type="matrix" values="0 0 0 0 0 0 0 0 0 0 0 0 0 0 0 0 0 0 0.25 0"/>
<feBlend mode="normal" in2="BackgroundImageFix" result="effect1_dropShadow_105_8"/>
<feBlend mode="normal" in="SourceGraphic" in2="effect1_dropShadow_105_8" result="shape"/>
</filter>
<linearGradient id="paint0_linear_105_8" x1="113.5" y1="76.396" x2="113.5" y2="115.593" gradientUnits="userSpaceOnUse">
<stop stop-color="#41D1FF"/>
<stop offset="1" stop-color="#BD34FE"/>
</linearGradient>
<linearGradient id="paint1_linear_105_8" x1="84" y1="0" x2="84" y2="168" gradientUnits="userSpaceOnUse">
<stop stop-color="#BD34FE"/>
<stop offset="1" stop-color="#41D1FF"/>
</linearGradient>
</defs>
</svg>
